<svg xmlns="http://www.w3.org/2000/svg" viewBox="0 0 52.71 52.75"><defs><style>.cls-1{fill:#fff;}</style></defs><title>chanceflurries</title><g id="Layer_2" data-name="Layer 2"><g id="Layer_1-2" data-name="Layer 1"><g id="chanceflurries"><path class="cls-1" d="M44.38,15.86a14,14,0,0,0,.22-2.45A13.42,13.42,0,0,0,20,6,9.29,9.29,0,0,0,7,14.57c0,.1,0,.2,0,.31a10.22,10.22,0,0,0,3.2,19.93h5c1.6,0,1.51-2.66,0-2.66h-5a7.56,7.56,0,0,1-1.49-15L10,16.92l-.21-1.27a6.57,6.57,0,0,1-.1-1.08A6.63,6.63,0,0,1,19.79,8.92L21,9.67l.66-1.25a10.75,10.75,0,0,1,20.27,5,10.93,10.93,0,0,1-.52,3.32l-.61,1.87,2.07-.14.32,0a6.85,6.85,0,0,1,0,13.71H37.45a1.33,1.33,0,1,0,0,2.66H43.2a9.51,9.51,0,0,0,1.18-19Z"/><path class="cls-1" d="M34.29,43.19a2.07,2.07,0,1,0-2.9.38A2.08,2.08,0,0,0,34.29,43.19Z"/><path class="cls-1" d="M21.5,43.19a2.07,2.07,0,1,0-2.91.38A2.08,2.08,0,0,0,21.5,43.19Z"/><circle class="cls-1" cx="26.25" cy="50.68" r="2.07" transform="translate(-29.94 40.71) rotate(-52.56)"/><circle class="cls-1" cx="26.25" cy="33.18" r="2.07" transform="translate(-16.05 33.84) rotate(-52.54)"/></g></g></g></svg>