<svg xmlns="http://www.w3.org/2000/svg" viewBox="0 0 52.52 50.37"><defs><style>.cls-1{fill:#fff;}</style></defs><title>chancesleet</title><g id="Layer_2" data-name="Layer 2"><g id="Layer_1-2" data-name="Layer 1"><g id="chancesleet"><path class="cls-1" d="M44.22,15.81a14.1,14.1,0,0,0,.21-2.44A13.36,13.36,0,0,0,19.92,6a9.18,9.18,0,0,0-3.66-.76A9.28,9.28,0,0,0,7,14.52c0,.1,0,.2,0,.31a10.19,10.19,0,0,0,3.18,19.86h5c1.59,0,1.5-2.64,0-2.64h-5A7.54,7.54,0,0,1,8.7,17.12L10,16.87l-.21-1.26a6.79,6.79,0,0,1-.1-1.08A6.6,6.6,0,0,1,19.72,8.89l1.21.74.66-1.25a10.72,10.72,0,0,1,19.69,8.29l-.61,1.86,2.06-.13H43A6.83,6.83,0,1,1,43,32H37.31a1.32,1.32,0,1,0,0,2.64H43a9.48,9.48,0,0,0,1.18-18.89Z"/><path class="cls-1" d="M19.95,38a1.08,1.08,0,0,1-.48-.12A1.06,1.06,0,0,1,19,36.42l3.46-6.63a1.06,1.06,0,0,1,1.88,1L20.89,37.4A1,1,0,0,1,19.95,38Z"/><path class="cls-1" d="M24.6,45a1.09,1.09,0,0,1-.47-.12,1.07,1.07,0,0,1-.47-1.42L30.57,29.8A1.07,1.07,0,0,1,32,29.33a1.05,1.05,0,0,1,.46,1.42L25.55,44.41A1.06,1.06,0,0,1,24.6,45Z"/><polygon class="cls-1" points="19.46 42.63 16.69 43.55 15.77 40.78 18.53 39.86 19.46 42.63"/><rect class="cls-1" x="20.89" y="47.06" width="2.91" height="2.92" transform="translate(-14.21 9.57) rotate(-18.46)"/></g></g></g></svg>