<svg xmlns="http://www.w3.org/2000/svg" viewBox="0 0 52.52 49.17"><defs><style>.cls-1{fill:#fff;}</style></defs><title>chancesnow</title><g id="Layer_2" data-name="Layer 2"><g id="Layer_1-2" data-name="Layer 1"><g id="chancesnow"><path class="cls-1" d="M44.22,15.8a13.62,13.62,0,0,0,.22-2.43A13.37,13.37,0,0,0,19.92,6,9.25,9.25,0,0,0,7,14.52c0,.1,0,.2,0,.31a10.19,10.19,0,0,0,3.18,19.86h5c1.59,0,1.5-2.65,0-2.65h-5A7.54,7.54,0,0,1,8.7,17.11l1.25-.25-.2-1.26a6.31,6.31,0,0,1-.1-1.08A6.6,6.6,0,0,1,19.72,8.89l1.21.74.66-1.25a10.72,10.72,0,0,1,19.69,8.28l-.6,1.86,2.06-.13H43A6.83,6.83,0,1,1,43,32H37.31a1.33,1.33,0,1,0,0,2.65H43A9.48,9.48,0,0,0,44.22,15.8Z"/><path class="cls-1" d="M35.59,37.61H30.5A4.27,4.27,0,0,0,30,36.47l2.28-2.3a1.08,1.08,0,1,0-1.54-1.52l-2.28,2.29a4.23,4.23,0,0,0-1.16-.48l0-5.08a1.08,1.08,0,1,0-2.17,0v5.08A4.19,4.19,0,0,0,24,35L21.8,32.8a1.08,1.08,0,1,0-1.53,1.53l2.18,2.16h0A4.38,4.38,0,0,0,22,37.67H16.88a1.09,1.09,0,0,0,0,2.17l5.08,0h0A4.48,4.48,0,0,0,22.46,41l-2.28,2.29A1.09,1.09,0,0,0,21,45.14a1.11,1.11,0,0,0,.76-.32L24,42.52a4.28,4.28,0,0,0,1.17.48l0,5.08a1.08,1.08,0,1,0,2.16,0V43a4.36,4.36,0,0,0,1.17-.49h0l2.17,2.16a1.07,1.07,0,0,0,.77.32,1.09,1.09,0,0,0,.77-1.86L30,41h0a4.39,4.39,0,0,0,.48-1.17l5.08,0a1.08,1.08,0,0,0,0-2.17Zm-9.35,2.81a1.69,1.69,0,1,1,1.69-1.7A1.69,1.69,0,0,1,26.24,40.42Z"/></g></g></g></svg>