<svg xmlns="http://www.w3.org/2000/svg" viewBox="0 0 52.52 52.44"><defs><style>.cls-1{fill:#fff;}</style></defs><title>flurries</title><g id="Layer_2" data-name="Layer 2"><g id="Layer_1-2" data-name="Layer 1"><g id="flurries"><path class="cls-1" d="M32.55,34.52a2.07,2.07,0,1,0-2.89.38A2.08,2.08,0,0,0,32.55,34.52Z"/><circle class="cls-1" cx="21.48" cy="33.26" r="2.07" transform="translate(-17.98 30.08) rotate(-52.53)"/><path class="cls-1" d="M32.55,51.63a2.07,2.07,0,1,0-2.89.38A2.07,2.07,0,0,0,32.55,51.63Z"/><circle class="cls-1" cx="21.48" cy="50.37" r="2.07" transform="translate(-31.56 36.78) rotate(-52.53)"/><circle class="cls-1" cx="25.87" cy="41.81" r="2.06" transform="translate(-23.06 36.94) rotate(-52.57)"/><path class="cls-1" d="M16.74,43.07a2.07,2.07,0,1,0-2.9.38A2.06,2.06,0,0,0,16.74,43.07Z"/><path class="cls-1" d="M38.28,43.07a2.07,2.07,0,1,0-2.9.38A2.07,2.07,0,0,0,38.28,43.07Z"/><path class="cls-1" d="M44.22,15.8a13.21,13.21,0,0,0,.22-2.44A13.36,13.36,0,0,0,19.92,6a9.16,9.16,0,0,0-3.65-.76A9.27,9.27,0,0,0,7,14.52v.3a10.19,10.19,0,0,0,3.19,19.87h5c1.59,0,1.5-2.65,0-2.65h-5A7.54,7.54,0,0,1,8.7,17.11L10,16.86,9.75,15.6a6.08,6.08,0,0,1-.1-1.08A6.6,6.6,0,0,1,19.73,8.89l1.21.74.66-1.25a10.71,10.71,0,0,1,19.67,8.29l-.6,1.86,2.06-.14.32,0A6.83,6.83,0,1,1,43,32H37.32a1.33,1.33,0,1,0,0,2.65H43A9.48,9.48,0,0,0,44.22,15.8Z"/></g></g></g></svg>