<svg xmlns="http://www.w3.org/2000/svg" viewBox="0 0 51.37 50.53"><defs><style>.cls-1{fill:#fff;}</style></defs><title>mostlysunny</title><g id="Layer_2" data-name="Layer 2"><g id="Layer_1-2" data-name="Layer 1"><g id="mostlysunny"><path class="cls-1" d="M28.83,7.61A1.32,1.32,0,0,1,27.5,6.28v-5a1.33,1.33,0,0,1,2.65,0v5A1.33,1.33,0,0,1,28.83,7.61Z"/><path class="cls-1" d="M12.56,23.92h-5a1.32,1.32,0,0,1,0-2.65h5a1.32,1.32,0,1,1,0,2.65Z"/><path class="cls-1" d="M50.05,23.92h-5a1.32,1.32,0,1,1,0-2.65h5a1.32,1.32,0,0,1,0,2.65Z"/><path class="cls-1" d="M40.84,12.3a1.31,1.31,0,0,1-.93-.39,1.32,1.32,0,0,1,0-1.87l3.5-3.5A1.32,1.32,0,1,1,45.28,8.4l-3.51,3.51A1.33,1.33,0,0,1,40.84,12.3Z"/><path class="cls-1" d="M44.35,39.08a1.32,1.32,0,0,1-.94-.39l-3.5-3.51a1.32,1.32,0,0,1,1.87-1.87l3.51,3.51a1.32,1.32,0,0,1,0,1.87A1.29,1.29,0,0,1,44.35,39.08Z"/><path class="cls-1" d="M17.36,12.54a1.34,1.34,0,0,1-.94-.39l-3.5-3.51a1.31,1.31,0,0,1,0-1.87,1.32,1.32,0,0,1,1.87,0l3.5,3.51a1.33,1.33,0,0,1-.94,2.26Z"/><path class="cls-1" d="M26.73,50.53h-20a6.72,6.72,0,0,1-2.46-13,6.17,6.17,0,0,1,6.16-6,6,6,0,0,1,2,.35A8.65,8.65,0,0,1,28.1,37,9.11,9.11,0,0,1,28,38.08a6.29,6.29,0,0,1-1.3,12.45ZM10.42,34.21a3.52,3.52,0,0,0-3.51,3.51,3.56,3.56,0,0,0,.06.57l.21,1.27-1.26.25a4.07,4.07,0,0,0,.81,8.07h20a3.64,3.64,0,1,0,0-7.29h-.17l-2,.14.56-1.86a6,6,0,0,0-11-4.65l-.66,1.25-1.21-.74A3.48,3.48,0,0,0,10.42,34.21Z"/><path class="cls-1" d="M40.82,22.59a12,12,0,0,0-24,0,11.51,11.51,0,0,0,.18,2,1.37,1.37,0,0,0,1.42,1.31,1.33,1.33,0,0,0,1.13-.65,3.21,3.21,0,0,0,0-1.54,8,8,0,0,1-.08-1.13,9.35,9.35,0,1,1,18.7,0,9.94,9.94,0,0,1-.11,1.18c-.05.39-.11.78-.2,1.16A8.3,8.3,0,0,1,37,27.07a9.79,9.79,0,0,1-1.33,1.86A8.12,8.12,0,0,1,34,30.38a13.67,13.67,0,0,1-2.1,1c-.29.13-.63.13-.92.28a1.36,1.36,0,0,0-.61.68,1.3,1.3,0,0,0-.1.51,1.38,1.38,0,0,0,1.39,1.36h0A11.84,11.84,0,0,0,40.82,22.59Z"/></g></g></g></svg>