<svg xmlns="http://www.w3.org/2000/svg" viewBox="0 0 52.21 49.78"><defs><style>.cls-1{fill:#fff;}</style></defs><title>mostlycloudy</title><g id="Layer_2" data-name="Layer 2"><g id="Layer_1-2" data-name="Layer 1"><g id="mostlycloudy"><path class="cls-1" d="M36.47,5.85a1.23,1.23,0,0,1-1.23-1.23V1.23a1.23,1.23,0,0,1,2.45,0v3.4A1.23,1.23,0,0,1,36.47,5.85Z"/><path class="cls-1" d="M51,17H47.58a1.23,1.23,0,1,1,0-2.45H51A1.23,1.23,0,1,1,51,17Z"/><path class="cls-1" d="M44.68,9.06a1.2,1.2,0,0,1-.86-.36,1.22,1.22,0,0,1,0-1.73l2.4-2.4a1.23,1.23,0,1,1,1.74,1.74l-2.4,2.4A1.2,1.2,0,0,1,44.68,9.06Z"/><path class="cls-1" d="M47.08,27.37a1.22,1.22,0,0,1-.86-.35l-2.4-2.4a1.23,1.23,0,0,1,1.73-1.74l2.4,2.4a1.22,1.22,0,0,1-.87,2.09Z"/><path class="cls-1" d="M28.63,9.23a1.22,1.22,0,0,1-.87-.36l-2.4-2.4A1.23,1.23,0,1,1,27.1,4.74l2.4,2.4a1.23,1.23,0,0,1-.87,2.09Z"/><path class="cls-1" d="M38.92,49.78H9.31a9.31,9.31,0,0,1-3-18.13c0-.06,0-.12,0-.19A8.47,8.47,0,0,1,18,23.64a12.18,12.18,0,0,1,22.28,6.79,11.5,11.5,0,0,1-.19,2.08,8.68,8.68,0,0,1-1.21,17.27ZM14.79,25.64A5.84,5.84,0,0,0,9,31.47a6,6,0,0,0,.08,1l.21,1.26L8,33.93A6.66,6.66,0,0,0,9.31,47.13H38.92a6,6,0,0,0,0-12.05h-.3l-2,.14.6-1.87A9.53,9.53,0,0,0,19.71,26L19,27.25l-1.21-.74A5.71,5.71,0,0,0,14.79,25.64Z"/><path class="cls-1" d="M38,7.95a7.66,7.66,0,0,0-8.91,6.16A6.66,6.66,0,0,0,29,15.16a1,1,0,0,0,.9,1.05c1.05.13,1-1,1.17-1.75a5.67,5.67,0,0,1,11.15,2,4.92,4.92,0,0,1-.71,2,7.16,7.16,0,0,1-2,1.79.81.81,0,0,0,.42,1.42c.83.17,1.5-.43,2.09-1a7,7,0,0,0,1.66-2.38,6.74,6.74,0,0,0,.47-1.49A7.66,7.66,0,0,0,38,7.95Z"/></g></g></g></svg>