<svg xmlns="http://www.w3.org/2000/svg" viewBox="0 0 52.53 50.23"><defs><style>.cls-1{fill:#fff;}</style></defs><title>sleet</title><g id="Layer_2" data-name="Layer 2"><g id="Layer_1-2" data-name="Layer 1"><g id="sleet"><polygon class="cls-1" points="15.65 49.06 12.88 49.98 11.95 47.22 14.72 46.29 15.65 49.06"/><path class="cls-1" d="M15.9,44.32a1.11,1.11,0,0,1-.45-.09,1.19,1.19,0,0,1-.65-1.56l5-12.27a1.19,1.19,0,1,1,2.2.91L17,43.58A1.21,1.21,0,0,1,15.9,44.32Z"/><rect class="cls-1" x="18.38" y="46.93" width="2.92" height="2.92" transform="translate(-14.3 8.77) rotate(-18.46)"/><path class="cls-1" d="M21.94,44.64a1.23,1.23,0,0,1-.46-.09A1.2,1.2,0,0,1,20.84,43l5-12.27a1.19,1.19,0,0,1,2.21.91L23,43.9A1.19,1.19,0,0,1,21.94,44.64Z"/><rect class="cls-1" x="24.41" y="46.93" width="2.91" height="2.92" transform="translate(-14 10.69) rotate(-18.47)"/><path class="cls-1" d="M28,44.64a1.22,1.22,0,0,1-.45-.09A1.19,1.19,0,0,1,26.87,43l5-12.27a1.19,1.19,0,0,1,2.2.91l-5,12.27A1.19,1.19,0,0,1,28,44.64Z"/><path class="cls-1" d="M44.22,15.81a13.63,13.63,0,0,0,.22-2.44A13.37,13.37,0,0,0,19.91,6,9.26,9.26,0,0,0,7,14.52c0,.1,0,.2,0,.3a10.19,10.19,0,0,0,3.18,19.87h5c1.59,0,1.5-2.65,0-2.65h-5A7.54,7.54,0,0,1,8.69,17.12L10,16.86,9.75,15.6a6.3,6.3,0,0,1-.09-1.08A6.6,6.6,0,0,1,19.72,8.89l1.2.74.66-1.25a10.72,10.72,0,0,1,19.68,8.29l-.6,1.86,2.06-.13.32,0A6.83,6.83,0,0,1,43,32H37.31a1.33,1.33,0,1,0,0,2.65H43a9.48,9.48,0,0,0,1.18-18.89Z"/></g></g></g></svg>