<svg xmlns="http://www.w3.org/2000/svg" viewBox="0 0 52.52 52.76"><defs><style>.cls-1{fill:#fff;}</style></defs><title>tstorms</title><g id="Layer_2" data-name="Layer 2"><g id="Layer_1-2" data-name="Layer 1"><g id="tstorms"><path class="cls-1" d="M13,46.52a1.31,1.31,0,0,1-.57-.13,1.33,1.33,0,0,1-.62-1.77l2.77-5.78A1.32,1.32,0,0,1,17,40l-2.76,5.78A1.34,1.34,0,0,1,13,46.52Z"/><path class="cls-1" d="M6.44,46.52a1.39,1.39,0,0,1-.57-.13,1.33,1.33,0,0,1-.62-1.77L8,38.84A1.32,1.32,0,1,1,10.4,40L7.63,45.76A1.33,1.33,0,0,1,6.44,46.52Z"/><path class="cls-1" d="M40.14,46.52a1.37,1.37,0,0,1-.58-.13,1.33,1.33,0,0,1-.62-1.77l2.77-5.78A1.33,1.33,0,0,1,44.1,40l-2.78,5.78A1.31,1.31,0,0,1,40.14,46.52Z"/><path class="cls-1" d="M33.56,46.52a1.38,1.38,0,0,1-.57-.13,1.32,1.32,0,0,1-.62-1.77l2.77-5.78A1.33,1.33,0,0,1,37.53,40l-2.78,5.78A1.32,1.32,0,0,1,33.56,46.52Z"/><path class="cls-1" d="M21,52.76a1.33,1.33,0,0,1-.69-.2,1.32,1.32,0,0,1-.44-1.81l7.91-13.06H19.55l9.33-13.24A1.33,1.33,0,1,1,31,26L24.65,35h7.87L22.17,52.12A1.32,1.32,0,0,1,21,52.76Z"/><path class="cls-1" d="M44.22,15.8a13.51,13.51,0,0,0,.22-2.44A13.37,13.37,0,0,0,19.91,6a9.12,9.12,0,0,0-3.65-.76A9.28,9.28,0,0,0,7,14.52c0,.1,0,.2,0,.3a10.19,10.19,0,0,0,3.18,19.87h5c1.59,0,1.5-2.64,0-2.64h-5A7.54,7.54,0,0,1,8.7,17.11L10,16.87,9.75,15.6a6.49,6.49,0,0,1-.09-1.08A6.6,6.6,0,0,1,19.73,8.89l1.2.74.67-1.25a10.71,10.71,0,0,1,20.2,5,10.88,10.88,0,0,1-.52,3.31l-.61,1.86,2.06-.14.32,0A6.83,6.83,0,1,1,43,32H37.32a1.32,1.32,0,1,0,0,2.64H43A9.48,9.48,0,0,0,44.22,15.8Z"/></g></g></g></svg>