<svg xmlns="http://www.w3.org/2000/svg" viewBox="0 0 52.52 34.69"><defs><style>.cls-1{fill:#fff;}</style></defs><title>unknown</title><g id="Layer_2" data-name="Layer 2"><g id="Layer_1-2" data-name="Layer 1"><g id="unknown"><path class="cls-1" d="M43,34.69H10.19A10.19,10.19,0,0,1,7,14.82c0-.1,0-.2,0-.3a9.28,9.28,0,0,1,9.26-9.27A9.15,9.15,0,0,1,19.91,6,13.37,13.37,0,0,1,44.22,15.8,9.48,9.48,0,0,1,43,34.69ZM16.27,7.91a6.62,6.62,0,0,0-6.61,6.62,6.39,6.39,0,0,0,.09,1.07L10,16.86l-1.25.25A7.54,7.54,0,0,0,10.19,32H43a6.83,6.83,0,1,0,0-13.66l-.33,0-2,.14.61-1.86a10.85,10.85,0,0,0,.52-3.3,10.71,10.71,0,0,0-20.2-5l-.67,1.25-1.2-.74A6.61,6.61,0,0,0,16.27,7.91Z"/><path class="cls-1" d="M27.23,24.2a1.32,1.32,0,0,1-1.32-1.33c0-1.88.11-3.23,1.56-4.85.28-.31.59-.62.9-.94,1.18-1.19,1.89-2,1.84-3.05a2.33,2.33,0,0,0-2-2.24,3.19,3.19,0,0,0-3,.88,2.61,2.61,0,0,0-.58,1.76A1.32,1.32,0,1,1,22,14.6a5.2,5.2,0,0,1,1.25-3.7,5.77,5.77,0,0,1,5.67-1.66,5,5,0,0,1,3.91,4.68c.11,2.3-1.4,3.82-2.61,5-.28.28-.55.55-.8.83-.82.91-.88,1.5-.88,3.08A1.33,1.33,0,0,1,27.23,24.2Z"/><circle class="cls-1" cx="27.26" cy="27.97" r="1.36"/><path class="cls-1" d="M27.26,29.86A1.89,1.89,0,1,1,29.16,28,1.89,1.89,0,0,1,27.26,29.86Zm0-2.72a.83.83,0,1,0,.84.83A.83.83,0,0,0,27.26,27.13Z"/></g></g></g></svg>